# xmcd CD database file
#
# Track frame offsets:
#	150
#	22382
#	42964
#	67473
#	89659
#	108296
#	128307
#	151525
#	175814
#	196919
#
# Disc length: 2870 seconds
#
# Revision: 0
# Processed by: cddbd v1.5.1PL0 Copyright (c) Steve Scherf et al.
# Submitted via: CDex 1.51
#
DISCID=820b340a
DTITLE=Siti Nurhaliza - THE MALAYSIA BOOK OF RECORDS
DYEAR=2001
DGENRE=Pop
TTITLE0=JERIT PERCINTAAN
TTITLE1=MAWARKU
TTITLE2=AKU CINTA PADAMU
TTITLE3=CINDAI
TTITLE4=WE'LL BE AS ONE
TTITLE5=PURNAMA MERINDU
TTITLE6=HATI KAMA
TTITLE7=KAU KEKASIHKU
TTITLE8=BALQIS
TTITLE9=DON'T PUT MY HEART ON HOLD
EXTD=YEAR: 2001
EXTT0=
EXTT1=
EXTT2=
EXTT3=
EXTT4=
EXTT5=
EXTT6=
EXTT7=
EXTT8=
EXTT9=
PLAYORDER=
